<svg id="AGMAN.XYZ" xmlns="http://www.w3.org/2000/svg" viewBox="0 0 1000 1000">
  <title>logga_agman</title>
  <g>
    <path d="M814,654.29,939,654v28h0l-153.13.47,0-88.56H61V409.21l22.54-22.54h58.93l22.21,22.54v132H134.74V490H91l.27,79.73,722.82-2M91,421.41v38.68h43.79V421.41l-4.8-4.8H96.06Z"/>
    <path d="M219.1,541.23l-22.21-22.54V408.89l22.21-22.54H278l22.22,22.38v21.73H270.3v-9.34l-4.79-4.83H231.63l-4.8,4.85v85.3l4.8,4.85h33.88l4.79-4.83V475.22H241v-30h59.25v73.42L278,541.23Z"/>
    <path d="M447.4,416.61h-20l-4.83,4.84V541.23H392.66V421.45l-4.83-4.84h-20L363,421.45V541.23h-30v-132l22.22-22.54h44.76l7.41,7.4,7.4-7.4h44.76l22.22,22.54v132H451.91V421.45Z"/>
    <path d="M544.65,541.23H514.38v-132l22.54-22.54h58.93l22.21,22.54v132H588.12V490H544.33Zm-.32-119.82v38.68h43.79V421.41l-4.79-4.8H549.44Z"/>
    <path d="M724,541.23V421.45l-4.83-4.84H685l-4.83,4.84V541.23H650.27v-132l22.28-22.54h59.11L754,409.21v132Z"/>
    <path d="M785.83,541.56V511.61h29.94v29.95Z"/>
    <path d="M861.47,412.43H843.14V407.5l19.91-42.37-19.91-42.38v-4.93h18.33l13.41,29.77,13.4-29.77h18.33v4.93L886.7,365.13l19.91,42.37v4.93H888.28l-13.4-29.76Z"/>
    <path d="M856.24,481.73,843,468.47V424.86h17.87V461l2.88,2.88H884.1L887,461V424.86h17.86v43.61L891.4,481.73h-8.65v35.35H864.88V481.73Z"/>
    <path d="M888.18,595.13h18.43v16.44l-13.67,13.87H845.19V601.66l40.22-52.89h-21.2l-3,3v6.93H842.81V544.21l13.68-13.87h47.74v23.72l-40.41,53H885l3-2.92Z"/>
  </g>
</svg>
